<?xml version="1.0" encoding="UTF-8"?>
<svg width="772px" height="200px" viewBox="0 0 772 200" version="1.1" xmlns="http://www.w3.org/2000/svg" xmlns:xlink="http://www.w3.org/1999/xlink">
    <!-- Generator: Sketch 48.2 (47327) - http://www.bohemiancoding.com/sketch -->
    <title>eid-logo</title>
    <desc>Created with Sketch.</desc>
    <defs></defs>
    <g id="Page-1" stroke="none" stroke-width="1" fill="none" fill-rule="evenodd">
        <g id="eid-logo" fill="#555555">
            <path d="M125.779297,153.658203 C125.453774,157.15757 125.087567,160.962056 124.680664,165.071777 C124.273761,169.181498 123.826174,173.128399 123.337891,176.912598 C122.849607,180.696796 122.381675,184.053696 121.934082,186.983398 C121.486489,189.913101 121.099937,191.988275 120.774414,193.208984 L2,193.208984 L2,183.077148 C7.53388184,181.93782 11.6638861,180.696784 14.3901367,179.354004 C17.1163873,178.011224 18.4794922,176.770188 18.4794922,175.630859 L18.4794922,57.1005859 C18.4794922,56.1240186 17.1977667,54.9033276 14.6342773,53.4384766 C12.070788,51.9736255 7.8594043,50.6715552 2,49.5322266 L2,39.4003906 L112.595703,39.4003906 L117.844727,43.6728516 C117.681965,45.7887476 117.437827,48.555647 117.112305,51.9736328 C116.786782,55.3916187 116.379885,58.8909326 115.891602,62.4716797 C115.403318,66.0524268 114.894697,69.4296716 114.365723,72.6035156 C113.836749,75.7773596 113.328127,78.1373621 112.839844,79.6835938 L102.463867,79.6835938 C102.056964,72.1151965 101.039722,66.1541559 99.4121094,61.800293 C97.7844971,57.4464301 95.4651843,55.2695312 92.4541016,55.2695312 L52.6591797,55.2695312 L52.6591797,103.487305 L100.876953,103.487305 L105.271484,108.125977 C104.620439,109.265305 103.82699,110.608065 102.891113,112.154297 C101.955236,113.700529 100.978683,115.267082 99.9614258,116.854004 C98.9441681,118.440926 97.9269257,119.88541 96.909668,121.1875 C95.8924103,122.48959 94.9362024,123.466143 94.0410156,124.117187 C92.8203064,122.896478 91.4978912,121.879236 90.0737305,121.06543 C88.6495697,120.251624 87.0219818,119.559899 85.190918,118.990234 C83.3598541,118.42057 81.2033002,118.013673 78.7211914,117.769531 C76.2390826,117.525389 73.2890796,117.40332 69.8710938,117.40332 L52.6591797,117.40332 L52.6591797,169.527344 C52.6591797,170.748053 52.9440076,171.82633 53.5136719,172.762207 C54.0833362,173.698084 55.2633374,174.511878 57.0537109,175.203613 C58.8440845,175.895349 61.3668457,176.424315 64.6220703,176.790527 C67.8772949,177.15674 72.1904028,177.339844 77.5615234,177.339844 L88.4257812,177.339844 C92.1692896,177.339844 95.3634308,176.831223 98.0083008,175.813965 C100.653171,174.796707 102.992828,173.189464 105.027344,170.992187 C107.061859,168.794911 108.91324,165.987322 110.581543,162.569336 C112.249846,159.15135 113.938468,155.041691 115.647461,150.240234 L125.779297,153.658203 Z M338.547852,178.072266 C334.804343,180.595065 330.857443,182.995757 326.707031,185.274414 C322.55662,187.553071 318.630064,189.546866 314.927246,191.255859 C311.224428,192.964852 307.969252,194.327957 305.161621,195.345215 C302.35399,196.362473 300.38054,196.871094 299.241211,196.871094 C296.148748,196.871094 293.666676,195.141782 291.794922,191.683105 C289.923168,188.224429 288.539718,183.199252 287.644531,176.607422 C283.656881,180.432311 280.076188,183.646797 276.902344,186.250977 C273.7285,188.855156 270.676772,190.950676 267.74707,192.537598 C264.817368,194.12452 261.84702,195.243486 258.835938,195.894531 C255.824855,196.545576 252.4883,196.871094 248.826172,196.871094 C243.048148,196.871094 237.412625,195.548679 231.919434,192.903809 C226.426242,190.258939 221.543478,186.454452 217.270996,181.490234 C212.998514,176.526017 209.53989,170.463252 206.89502,163.301758 C204.25015,156.140264 202.927734,148.043014 202.927734,139.009766 C202.927734,130.464801 204.392563,122.387896 207.322266,114.778809 C210.251968,107.169721 214.361627,100.496611 219.651367,94.7592773 C224.941107,89.021944 231.268355,84.4646979 238.633301,81.0874023 C245.998246,77.7101068 254.075151,76.0214844 262.864258,76.0214844 C266.689147,76.0214844 270.493633,76.469071 274.277832,77.3642578 C278.062031,78.2594446 282.151345,80.1718604 286.545898,83.1015625 L286.545898,42.5742188 C286.545898,38.0982849 286.484864,34.5379364 286.362793,31.8930664 C286.240722,29.2481964 285.691411,27.2137115 284.714844,25.7895508 C283.738276,24.36539 282.131033,23.3888373 279.893066,22.8598633 C277.655099,22.3308893 274.379579,21.9036475 270.066406,21.578125 L270.066406,11.9345703 C274.949243,11.5276672 279.608214,10.9987012 284.043457,10.3476562 C288.478701,9.69661133 292.608705,9.02523132 296.433594,8.33349609 C300.258483,7.64176086 303.696762,6.90934631 306.748535,6.13623047 C309.800308,5.36311462 312.384104,4.65104492 314.5,4 L319.504883,8.8828125 L319.504883,154.878906 C319.504883,157.727228 319.565917,160.107575 319.687988,162.02002 C319.810059,163.932464 319.972818,165.478672 320.17627,166.658691 C320.379721,167.83871 320.664549,168.713539 321.030762,169.283203 C321.396974,169.852867 321.824216,170.259764 322.3125,170.503906 C322.800784,170.748048 323.309405,170.931152 323.838379,171.053223 C324.367353,171.175294 325.059078,171.154949 325.913574,170.992188 C326.768071,170.829426 327.887037,170.524254 329.270508,170.07666 C330.653978,169.629067 332.403635,168.916997 334.519531,167.94043 L338.547852,178.072266 Z M286.545898,160.005859 L286.545898,108.003906 C283.453435,103.283831 279.852397,99.6217578 275.742676,97.0175781 C271.632955,94.4133984 266.892605,93.1113281 261.521484,93.1113281 C257.859357,93.1113281 254.461767,93.8233978 251.328613,95.2475586 C248.19546,96.6717194 245.489595,98.9299976 243.210938,102.022461 C240.93228,105.114924 239.141934,109.102515 237.839844,113.985352 C236.537754,118.868188 235.886719,124.727505 235.886719,131.563477 C235.886719,137.829784 236.639478,143.424617 238.14502,148.348145 C239.650561,153.271672 241.644356,157.422021 244.126465,160.799316 C246.608574,164.176612 249.436508,166.760408 252.610352,168.550781 C255.784196,170.341155 259.039371,171.236328 262.375977,171.236328 C264.410492,171.236328 266.363597,171.053224 268.235352,170.687012 C270.107106,170.320799 271.999177,169.710453 273.911621,168.855957 C275.824066,168.001461 277.817861,166.841804 279.893066,165.376953 C281.968272,163.912102 284.185861,162.121755 286.545898,160.005859 Z M417.978516,140.108398 C417.978516,133.67933 417.429205,127.55553 416.330566,121.736816 C415.231928,115.918102 413.624685,110.791201 411.508789,106.355957 C409.392893,101.920714 406.727718,98.4010547 403.513184,95.796875 C400.298649,93.1926953 396.616232,91.890625 392.46582,91.890625 C387.827125,91.890625 384.002294,92.9892468 380.991211,95.1865234 C377.980128,97.3838 375.599781,100.435527 373.850098,104.341797 C372.100414,108.248066 370.879724,112.866347 370.187988,118.196777 C369.496253,123.527208 369.150391,129.2848 369.150391,135.469727 C369.150391,141.898795 369.781081,147.880181 371.04248,153.414062 C372.30388,158.947944 374.053537,163.769673 376.291504,167.879395 C378.529471,171.989116 381.214991,175.203602 384.348145,177.522949 C387.481298,179.842297 390.919578,181.001953 394.663086,181.001953 C399.2204,181.001953 403.004542,180.127125 406.015625,178.377441 C409.026708,176.627758 411.407055,174.023618 413.156738,170.564941 C414.906422,167.106265 416.147457,162.833847 416.879883,157.747559 C417.612308,152.66127 417.978516,146.781609 417.978516,140.108398 Z M452.768555,134.004883 C452.768555,139.457384 452.015795,144.787734 450.510254,149.996094 C449.004713,155.204453 446.909193,160.127906 444.223633,164.766602 C441.538073,169.405297 438.303242,173.69806 434.519043,177.64502 C430.734844,181.591979 426.56415,184.989569 422.006836,187.837891 C417.449521,190.686212 412.566758,192.903801 407.358398,194.490723 C402.150039,196.077645 396.778999,196.871094 391.245117,196.871094 C382.618772,196.871094 374.80635,195.406265 367.807617,192.476562 C360.808884,189.54686 354.827499,185.51858 349.863281,180.391602 C344.899064,175.264623 341.074232,169.161168 338.388672,162.081055 C335.703112,155.000941 334.360352,147.310588 334.360352,139.009766 C334.360352,133.638645 335.031732,128.348984 336.374512,123.140625 C337.717292,117.932266 339.650052,112.988467 342.172852,108.309082 C344.695651,103.629697 347.788068,99.3165887 351.450195,95.3696289 C355.112323,91.4226691 359.221982,88.0250793 363.779297,85.1767578 C368.336611,82.3284363 373.321099,80.0905029 378.73291,78.4628906 C384.144721,76.8352783 389.902313,76.0214844 396.005859,76.0214844 C404.550824,76.0214844 412.322556,77.4863135 419.321289,80.4160156 C426.320022,83.3457178 432.301407,87.3943427 437.265625,92.5620117 C442.229843,97.7296808 446.054674,103.85348 448.740234,110.933594 C451.425795,118.013707 452.768555,125.70406 452.768555,134.004883 Z M451.196289,193.208984 L451.196289,183.077148 C454.695656,182.507484 457.564279,181.917484 459.802246,181.307129 C462.040213,180.696774 463.78987,180.086429 465.05127,179.476074 C466.312669,178.86572 467.167153,178.235029 467.614746,177.583984 C468.062339,176.932939 468.286133,176.281904 468.286133,175.630859 L468.286133,39.8886719 C468.286133,36.2265442 468.103029,33.3782654 467.736816,31.34375 C467.370604,29.3092346 466.617844,27.783371 465.478516,26.7661133 C464.339187,25.7488556 462.731944,25.0571307 460.656738,24.690918 C458.581533,24.3247052 455.834978,23.9381531 452.416992,23.53125 L452.416992,13.765625 C456.892926,13.1959607 461.02293,12.6059601 464.807129,11.9956055 C468.591328,11.3852509 472.192366,10.7138708 475.610352,9.98144531 C479.028337,9.24901978 482.364893,8.39453613 485.620117,7.41796875 C488.875342,6.44140137 492.211897,5.30208984 495.629883,4 L501.245117,9.37109375 L501.245117,175.630859 C501.245117,176.281904 501.5096,176.912595 502.038574,177.522949 C502.567548,178.133304 503.483066,178.763994 504.785156,179.415039 C506.087246,180.066084 507.836903,180.696774 510.03418,181.307129 C512.231456,181.917484 514.998356,182.507484 518.334961,183.077148 L518.334961,193.208984 L451.196289,193.208984 Z M598.549805,140.108398 C598.549805,133.67933 598.000494,127.55553 596.901855,121.736816 C595.803217,115.918102 594.195974,110.791201 592.080078,106.355957 C589.964182,101.920714 587.299007,98.4010547 584.084473,95.796875 C580.869938,93.1926953 577.187521,91.890625 573.037109,91.890625 C568.398414,91.890625 564.573583,92.9892468 561.5625,95.1865234 C558.551417,97.3838 556.17107,100.435527 554.421387,104.341797 C552.671703,108.248066 551.451013,112.866347 550.759277,118.196777 C550.067542,123.527208 549.72168,129.2848 549.72168,135.469727 C549.72168,141.898795 550.35237,147.880181 551.61377,153.414062 C552.875169,158.947944 554.624826,163.769673 556.862793,167.879395 C559.10076,171.989116 561.78628,175.203602 564.919434,177.522949 C568.052587,179.842297 571.490867,181.001953 575.234375,181.001953 C579.791689,181.001953 583.575831,180.127125 586.586914,178.377441 C589.597997,176.627758 591.978344,174.023618 593.728027,170.564941 C595.477711,167.106265 596.718746,162.833847 597.451172,157.747559 C598.183597,152.66127 598.549805,146.781609 598.549805,140.108398 Z M633.339844,134.004883 C633.339844,139.457384 632.587084,144.787734 631.081543,149.996094 C629.576002,155.204453 627.480482,160.127906 624.794922,164.766602 C622.109362,169.405297 618.874531,173.69806 615.090332,177.64502 C611.306133,181.591979 607.135439,184.989569 602.578125,187.837891 C598.020811,190.686212 593.138047,192.903801 587.929688,194.490723 C582.721328,196.077645 577.350288,196.871094 571.816406,196.871094 C563.190061,196.871094 555.377639,195.406265 548.378906,192.476562 C541.380173,189.54686 535.398788,185.51858 530.43457,180.391602 C525.470353,175.264623 521.645521,169.161168 518.959961,162.081055 C516.274401,155.000941 514.931641,147.310588 514.931641,139.009766 C514.931641,133.638645 515.603021,128.348984 516.945801,123.140625 C518.288581,117.932266 520.221342,112.988467 522.744141,108.309082 C525.26694,103.629697 528.359357,99.3165887 532.021484,95.3696289 C535.683612,91.4226691 539.793271,88.0250793 544.350586,85.1767578 C548.9079,82.3284363 553.892388,80.0905029 559.304199,78.4628906 C564.71601,76.8352783 570.473602,76.0214844 576.577148,76.0214844 C585.122113,76.0214844 592.893845,77.4863135 599.892578,80.4160156 C606.891311,83.3457178 612.872697,87.3943427 617.836914,92.5620117 C622.801132,97.7296808 626.625963,103.85348 629.311523,110.933594 C631.997084,118.013707 633.339844,125.70406 633.339844,134.004883 Z M706.230469,193.208984 L706.230469,183.077148 C712.089873,181.530917 716.199532,180.188157 718.55957,179.048828 C720.919608,177.9095 722.099609,176.770188 722.099609,175.630859 L722.099609,123.262695 C722.099609,118.949523 721.896161,115.32814 721.489258,112.398438 C721.082355,109.468735 720.410975,107.129078 719.475098,105.379395 C718.539221,103.629711 717.31853,102.368331 715.812988,101.595215 C714.307447,100.822099 712.415376,100.435547 710.136719,100.435547 C708.427726,100.435547 706.617034,100.577961 704.70459,100.862793 C702.792145,101.147625 700.676281,101.676591 698.356934,102.449707 C696.037586,103.222823 693.372411,104.34179 690.361328,105.806641 C687.350245,107.271492 683.891621,109.183907 679.985352,111.543945 L679.985352,175.630859 C679.985352,176.851569 681.307767,178.112949 683.952637,179.415039 C686.597507,180.717129 690.564752,181.93782 695.854492,183.077148 L695.854492,193.208984 L631.157227,193.208984 L631.157227,183.077148 C636.528347,181.693678 640.515937,180.452642 643.120117,179.354004 C645.724297,178.255366 647.026367,177.01433 647.026367,175.630859 L647.026367,110.079102 C647.026367,106.905258 646.965333,104.382496 646.843262,102.510742 C646.721191,100.638988 646.192225,99.1741589 645.256348,98.1162109 C644.320471,97.0582629 642.774262,96.2851587 640.617676,95.796875 C638.461089,95.3085913 635.307638,94.8203149 631.157227,94.3320312 L631.157227,84.5664062 C635.389019,84.1595032 639.356264,83.6915717 643.059082,83.1625977 C646.7619,82.6336237 650.261214,82.0232782 653.557129,81.331543 C656.853044,80.6398077 660.06753,79.8667035 663.200684,79.012207 C666.333837,78.1577106 669.487289,77.160813 672.661133,76.0214844 L678.154297,81.5146484 L679.49707,94.8203125 C684.624049,91.2395654 689.425433,88.2488727 693.901367,85.8481445 C698.377301,83.4474164 702.629374,81.5146558 706.657715,80.0498047 C710.686055,78.5849536 714.470197,77.5473663 718.010254,76.9370117 C721.550311,76.3266571 724.907211,76.0214844 728.081055,76.0214844 C731.580421,76.0214844 734.957666,76.5911401 738.212891,77.7304688 C741.468115,78.8697974 744.336739,80.7211786 746.818848,83.284668 C749.300956,85.8481573 751.294752,89.2254022 752.800293,93.4165039 C754.305834,97.6076056 755.058594,102.754852 755.058594,108.858398 L755.058594,175.630859 C755.058594,176.200524 755.282387,176.749835 755.72998,177.278809 C756.177574,177.807783 756.991368,178.357094 758.171387,178.926758 C759.351406,179.496422 760.978994,180.127112 763.054199,180.818848 C765.129405,181.510583 767.75389,182.263342 770.927734,183.077148 L770.927734,193.208984 L706.230469,193.208984 Z M166.028878,83.800651 C154.572915,83.800651 145.286021,74.4434023 145.286021,62.900651 C145.286021,51.3578998 154.572915,42.000651 166.028878,42.000651 C177.484842,42.000651 186.771735,51.3578998 186.771735,62.900651 C186.771735,74.4434023 177.484842,83.800651 166.028878,83.800651 Z M191.486021,98.8423177 C192.271735,100.425651 192.900307,102.325651 192.586021,104.225651 L191.014593,137.792318 C190.85745,141.750651 187.55745,144.917318 183.628878,144.917318 L182.843164,144.917318 L176.714593,186.242318 C176.400307,189.883984 173.414593,192.575651 169.800307,192.575651 L162.100307,192.575651 C158.486021,192.575651 155.500307,189.883984 155.186021,186.242318 L149.05745,144.917318 L148.271735,144.917318 C144.343164,144.917318 141.043164,141.750651 140.886021,137.792318 L139.314593,104.225651 C139.15745,102.483984 139.786021,100.742318 140.571735,99.000651 C143.400307,93.300651 149.371735,89.8173177 155.65745,89.8173177 L176.400307,89.8173177 C182.686021,89.8173177 188.65745,93.1423177 191.486021,98.8423177 Z" id="E-dolon"></path>
        </g>
    </g>
</svg>